<?xml version="1.0" standalone="no"?>
<!DOCTYPE svg PUBLIC "-//W3C//DTD SVG 20010904//EN"
 "http://www.w3.org/TR/2001/REC-SVG-20010904/DTD/svg10.dtd">
<svg version="1.0" xmlns="http://www.w3.org/2000/svg"
 width="500.000000pt" height="500.000000pt" viewBox="0 0 500.000000 500.000000"
 preserveAspectRatio="xMidYMid meet">

<g transform="translate(0.000000,500.000000) scale(0.100000,-0.100000)"
fill="#000000" stroke="none">
<path d="M2285 4839 c-75 -11 -217 -48 -229 -59 -4 -4 5 -15 20 -23 27 -14 27
-16 9 -22 -80 -25 -289 -145 -267 -153 6 -2 43 1 84 7 40 5 74 9 76 7 1 -2
-21 -16 -50 -31 -132 -69 -239 -168 -330 -305 -91 -138 -184 -338 -165 -356 3
-3 19 3 36 15 33 24 176 91 193 91 6 0 8 -9 4 -22 -3 -13 -20 -99 -36 -192
-29 -168 -38 -306 -18 -306 6 0 8 7 4 15 -6 16 -6 16 43 19 29 1 36 7 44 31 6
17 16 39 23 50 8 11 14 26 14 33 0 31 104 223 165 304 78 103 138 147 204 150
172 7 275 -9 496 -77 223 -68 286 -77 545 -79 129 -1 241 -5 248 -9 6 -5 12
-15 12 -23 0 -9 15 -43 34 -77 50 -89 60 -157 54 -360 -6 -178 -11 -207 -34
-207 -10 0 -14 14 -14 48 0 70 -26 179 -54 226 -39 67 -169 134 -196 101 -7
-8 -17 -15 -22 -15 -6 0 -5 7 2 15 7 9 11 18 8 21 -8 8 -61 -16 -85 -38 -27
-25 -44 -16 -20 10 22 24 21 31 -3 25 -25 -7 -70 -51 -81 -80 -18 -48 6 -62
136 -84 86 -14 152 -46 193 -93 32 -37 66 -95 60 -101 -2 -2 -53 7 -113 21
-129 30 -204 33 -340 15 -70 -10 -106 -20 -122 -34 -16 -14 -30 -17 -55 -13
-25 4 -28 4 -13 -3 18 -9 18 -10 -7 -10 -34 -1 -59 9 -52 20 3 5 -2 9 -10 9
-9 0 -22 15 -29 33 -18 41 -39 59 -112 95 -76 38 -197 68 -348 88 -92 12 -122
13 -133 3 -8 -7 -30 -9 -54 -6 -25 3 -41 1 -43 -7 -3 -8 -10 -8 -26 2 -15 9
-27 10 -41 2 -25 -13 -103 -13 -117 1 -8 8 -14 1 -22 -27 -16 -57 -14 -64 24
-98 32 -29 36 -38 50 -128 19 -124 38 -170 86 -211 95 -82 440 -146 547 -102
59 25 116 89 157 176 42 89 63 103 120 76 32 -15 32 -16 37 -104 9 -153 57
-229 174 -273 72 -26 214 -56 317 -65 42 -4 77 -11 77 -16 0 -21 -101 -209
-143 -265 -68 -93 -132 -140 -250 -184 -38 -14 -58 -28 -66 -47 -22 -47 -72
-103 -112 -123 -51 -26 -104 -25 -165 3 -55 26 -179 55 -298 68 -156 17 -216
80 -241 251 -5 31 -11 39 -33 44 -56 14 -199 94 -256 143 -114 101 -164 204
-172 357 -4 74 -1 113 10 154 39 133 53 295 26 295 -8 0 -20 3 -25 7 -16 10
-45 -17 -55 -51 -10 -37 -53 -240 -76 -366 -9 -49 -20 -130 -25 -180 -12 -130
-12 -430 0 -500 6 -33 11 -62 11 -64 0 -2 6 -1 14 2 9 4 27 -21 54 -76 23 -45
65 -113 93 -152 98 -131 389 -405 431 -405 4 0 8 7 8 15 0 8 2 15 4 15 2 0 33
-20 69 -44 57 -38 70 -43 94 -36 118 38 123 39 123 17 0 -18 5 -19 49 -13 100
13 361 115 491 191 46 28 116 80 155 117 41 38 79 66 89 65 39 -4 132 227 229
568 26 89 47 178 49 198 1 20 5 37 9 37 19 0 83 83 125 162 41 76 51 89 83 99
46 14 61 34 61 80 0 20 -6 41 -12 47 -7 5 -47 20 -88 33 -79 25 -93 35 -84 59
10 27 83 403 90 461 6 49 1 72 -34 175 -24 72 -40 140 -41 171 0 29 -10 92
-21 140 -26 111 -99 333 -110 333 -5 0 -11 -13 -15 -30 -8 -37 -15 -37 -46 -4
-13 15 -55 48 -93 75 -38 27 -100 78 -138 114 -37 36 -70 65 -73 65 -11 0 -4
-24 17 -53 21 -29 21 -30 2 -23 -139 56 -281 97 -454 130 -156 29 -238 36
-315 25z m-450 -1379 c3 -5 2 -10 -4 -10 -5 0 -16 -3 -25 -6 -11 -4 -16 -1
-16 10 0 18 35 22 45 6z m457 -29 c181 -38 283 -82 294 -127 20 -78 -62 -251
-137 -290 -48 -24 -189 -20 -317 11 -138 33 -179 56 -211 120 -22 44 -25 62
-25 145 1 108 11 135 57 156 43 20 209 12 339 -15z m920 -171 c129 -25 226
-57 237 -78 5 -11 3 -36 -6 -67 -8 -27 -23 -86 -35 -130 -44 -172 -37 -160
-93 -164 -60 -4 -182 13 -289 42 -66 17 -87 27 -121 62 -50 50 -65 99 -65 218
0 74 3 86 23 104 12 11 29 23 37 26 36 13 215 6 312 -13z m296 -112 c28 -28
-2 -163 -47 -220 -18 -22 -18 -21 -8 37 5 33 10 79 11 103 1 23 4 42 9 42 4 0
7 11 7 25 0 27 9 32 28 13z m137 -19 c8 -13 6 -15 -22 -23 -17 -5 -23 -3 -23
7 0 14 13 24 32 26 4 1 10 -4 13 -10z"/>
<path d="M2019 3366 c-3 -3 -15 -7 -27 -9 -29 -4 -82 -44 -82 -61 0 -8 12 -22
28 -31 27 -18 27 -18 9 2 -21 24 -13 33 46 58 53 22 71 20 62 -7 -4 -13 -9
-44 -10 -70 l-2 -47 49 -10 c128 -28 187 -34 203 -21 23 19 36 81 25 120 -6
19 -10 36 -10 37 0 1 21 -10 48 -25 26 -16 57 -43 70 -62 28 -42 29 -30 1 20
-22 39 -35 47 -129 84 -42 17 -81 23 -165 25 -60 1 -113 0 -116 -3z m107 -87
c8 -14 -21 -43 -35 -35 -6 4 -11 16 -11 27 0 21 34 27 46 8z"/>
<path d="M2973 3263 c9 -2 23 -2 30 0 6 3 -1 5 -18 5 -16 0 -22 -2 -12 -5z"/>
<path d="M2955 3182 c-16 -10 -37 -27 -45 -38 -14 -18 -14 -18 4 -4 18 14 18
13 11 -10 -6 -23 -6 -23 7 -7 8 11 20 16 31 11 21 -8 21 -14 3 -39 -12 -16
-16 -17 -30 -6 -14 12 -16 11 -16 -6 0 -27 47 -51 147 -73 48 -11 91 -20 95
-20 4 0 14 13 23 30 17 33 20 93 5 121 -13 24 -7 24 39 -1 48 -28 81 -78 70
-108 -9 -23 -3 -27 18 -14 15 9 3 60 -22 99 -28 42 -118 75 -220 80 -76 4 -95
1 -120 -15z"/>
<path d="M2148 3819 c-33 -4 -75 -17 -101 -32 -84 -50 -196 -191 -197 -249 0
-22 23 -23 40 -3 16 20 110 70 177 95 66 24 165 26 276 5 113 -22 154 -20 168
6 15 29 -2 87 -36 119 -29 27 -42 22 -25 -10 21 -38 4 -44 -19 -7 -25 40 -57
67 -80 67 -12 0 -12 -3 -3 -12 7 -7 12 -17 12 -23 -1 -5 -11 2 -23 16 -18 22
-33 27 -77 31 -30 2 -81 1 -112 -3z"/>
<path d="M1462 3264 c-6 -10 -12 -13 -12 -6 0 7 -5 10 -10 7 -6 -4 -8 -11 -5
-16 4 -5 -1 -9 -9 -9 -17 0 -35 -29 -29 -47 2 -6 -1 -14 -6 -18 -6 -3 -11 -14
-10 -23 0 -10 3 -12 5 -5 3 7 12 9 20 6 8 -3 14 0 14 6 0 6 7 8 15 5 8 -4 15
-10 15 -16 0 -5 -4 -6 -10 -3 -6 3 -7 -1 -4 -10 4 -9 15 -15 28 -13 18 3 21
11 24 58 2 31 -1 67 -6 80 -9 23 -9 23 -20 4z"/>
<path d="M1411 3124 c-1 -18 26 -37 34 -24 3 5 0 10 -9 10 -8 0 -17 6 -19 13
-4 7 -6 8 -6 1z"/>
<path d="M3440 2765 c-8 -9 -8 -15 -2 -15 12 0 26 19 19 26 -2 2 -10 -2 -17
-11z"/>
<path d="M2474 2690 c-52 -21 -37 -55 29 -63 23 -2 50 -8 60 -12 26 -11 22 27
-5 52 -29 26 -57 34 -84 23z"/>
<path d="M2717 2617 l-28 -23 37 -12 c46 -14 77 -1 72 31 -4 31 -46 33 -81 4z"/>
<path d="M2623 2323 c9 -2 23 -2 30 0 6 3 -1 5 -18 5 -16 0 -22 -2 -12 -5z"/>
<path d="M4146 2231 c-4 -7 -5 -15 -2 -18 9 -9 19 4 14 18 -4 11 -6 11 -12 0z"/>
<path d="M1676 1915 c8 -35 34 -78 34 -55 -1 8 -10 31 -20 50 -20 35 -20 35
-14 5z"/>
<path d="M3046 1785 c-9 -26 -7 -32 5 -12 6 10 9 21 6 23 -2 3 -7 -2 -11 -11z"/>
<path d="M4435 1730 c3 -5 10 -10 16 -10 5 0 9 5 9 10 0 6 -7 10 -16 10 -8 0
-12 -4 -9 -10z"/>
<path d="M2571 1185 c0 -16 4 -52 8 -80 l7 -50 16 31 c9 17 33 45 53 63 42 36
41 61 -2 62 -15 0 -40 2 -55 3 -25 1 -28 -2 -27 -29z"/>
<path d="M2421 1194 c-53 -19 -108 -53 -137 -85 -21 -23 -22 -26 -9 -124 13
-100 10 -123 -19 -112 -10 4 -17 29 -22 86 -3 45 -10 81 -13 81 -4 0 -25 -18
-46 -41 -22 -23 -64 -55 -93 -71 -52 -30 -53 -31 -50 -72 2 -31 7 -40 18 -37
199 55 234 55 371 -1 96 -40 111 -43 194 -43 114 1 170 17 212 62 52 54 46 61
-60 65 -84 3 -97 6 -130 31 l-37 28 0 -36 c0 -23 -5 -38 -15 -42 -9 -3 -18 -4
-20 -2 -2 2 -10 63 -19 134 -26 201 -24 195 -55 195 -14 -1 -46 -8 -70 -16z"/>
<path d="M2093 784 c-42 -15 -57 -33 -47 -58 4 -10 29 -13 102 -12 90 0 104
-2 208 -41 178 -67 321 -80 404 -38 56 28 110 85 110 116 0 34 -13 44 -31 23
-30 -36 -73 -48 -194 -52 -119 -4 -121 -4 -235 37 -99 35 -126 41 -195 40 -44
0 -99 -7 -122 -15z"/>
<path d="M2116 663 l-69 -4 7 -91 c3 -50 6 -111 6 -135 l0 -43 405 0 405 0 0
131 0 131 -36 -32 c-52 -45 -72 -50 -202 -50 -112 0 -122 2 -244 44 -140 49
-171 54 -272 49z"/>
<path d="M1817 135 c-9 -19 -13 -35 -8 -35 9 0 34 60 28 66 -2 2 -11 -12 -20
-31z"/>
<path d="M3030 102 c0 -23 4 -42 9 -42 6 0 7 17 4 38 -8 51 -13 53 -13 4z"/>
</g>
</svg>
